<svg width="1665" height="600" viewBox="0 0 1665 600" fill="none" xmlns="http://www.w3.org/2000/svg">
<rect width="1665" height="600" rx="48" fill="white"/>
<path fill-rule="evenodd" clip-rule="evenodd" d="M175 121H425C441.036 121 455.881 126.101 468 134.768V97H475.011C460.007 89.3278 443.009 85 425 85H175C114.249 85 65 134.249 65 195V446C65 506.751 114.249 556 175 556H425C485.751 556 535 506.751 535 446V237H499V446C499 486.869 465.869 520 425 520H175C134.131 520 101 486.869 101 446V195C101 154.131 134.131 121 175 121Z" fill="#178BFF"/>
<rect x="499" y="223" width="36" height="43" rx="18" fill="#178BFF"/>
<circle cx="414.5" cy="105.5" r="62.5" fill="#002EAA"/>
<circle cx="175" cy="445" r="24" fill="#002EAA"/>
<path d="M306.5 448.5C306.5 371 238.5 312 169.5 312" stroke="#002EAA" stroke-width="36" stroke-linecap="round"/>
<path d="M426.5 449C426.5 283.5 273 183 170 192.5" stroke="#002EAA" stroke-width="36" stroke-linecap="round"/>
<path d="M647.534 383C643.779 383 640.622 381.72 638.062 379.16C635.502 376.6 634.222 373.443 634.222 369.688V196.376C634.222 192.451 635.502 189.293 638.062 186.904C640.622 184.344 643.779 183.064 647.534 183.064H763.246C767.171 183.064 770.329 184.259 772.718 186.648C775.107 188.867 776.302 191.853 776.302 195.608C776.302 199.192 775.107 202.093 772.718 204.312C770.329 206.531 767.171 207.64 763.246 207.64H660.846V269.848H734.318C738.243 269.848 741.401 271.043 743.79 273.432C746.179 275.651 747.374 278.552 747.374 282.136C747.374 285.72 746.179 288.707 743.79 291.096C741.401 293.315 738.243 294.424 734.318 294.424H660.846V369.688C660.846 373.443 659.566 376.6 657.006 379.16C654.446 381.72 651.289 383 647.534 383ZM873.582 384.024C859.417 384.024 846.787 381.037 835.694 375.064C824.771 368.92 816.153 360.557 809.838 349.976C803.694 339.224 800.622 326.936 800.622 313.112C800.622 299.117 803.523 286.829 809.326 276.248C815.299 265.496 823.491 257.133 833.902 251.16C844.313 245.016 856.259 241.944 869.742 241.944C883.054 241.944 894.489 244.931 904.046 250.904C913.603 256.707 920.857 264.813 925.806 275.224C930.926 285.464 933.486 297.325 933.486 310.808C933.486 314.051 932.377 316.781 930.158 319C927.939 321.048 925.123 322.072 921.71 322.072H818.542V301.592H920.942L910.446 308.76C910.275 300.227 908.569 292.632 905.326 285.976C902.083 279.149 897.475 273.773 891.502 269.848C885.529 265.923 878.275 263.96 869.742 263.96C860.014 263.96 851.651 266.093 844.654 270.36C837.827 274.627 832.622 280.515 829.038 288.024C825.454 295.363 823.662 303.725 823.662 313.112C823.662 322.499 825.795 330.861 830.062 338.2C834.329 345.539 840.217 351.341 847.726 355.608C855.235 359.875 863.854 362.008 873.582 362.008C878.873 362.008 884.249 361.069 889.71 359.192C895.342 357.144 899.865 354.84 903.278 352.28C905.838 350.403 908.569 349.464 911.47 349.464C914.542 349.293 917.187 350.147 919.406 352.024C922.307 354.584 923.843 357.4 924.014 360.472C924.185 363.544 922.819 366.189 919.918 368.408C914.115 373.016 906.862 376.771 898.158 379.672C889.625 382.573 881.433 384.024 873.582 384.024ZM1027.58 384.024C1013.42 384.024 1000.79 381.037 989.694 375.064C978.771 368.92 970.153 360.557 963.838 349.976C957.694 339.224 954.622 326.936 954.622 313.112C954.622 299.117 957.523 286.829 963.326 276.248C969.299 265.496 977.491 257.133 987.902 251.16C998.313 245.016 1010.26 241.944 1023.74 241.944C1037.05 241.944 1048.49 244.931 1058.05 250.904C1067.6 256.707 1074.86 264.813 1079.81 275.224C1084.93 285.464 1087.49 297.325 1087.49 310.808C1087.49 314.051 1086.38 316.781 1084.16 319C1081.94 321.048 1079.12 322.072 1075.71 322.072H972.542V301.592H1074.94L1064.45 308.76C1064.28 300.227 1062.57 292.632 1059.33 285.976C1056.08 279.149 1051.48 273.773 1045.5 269.848C1039.53 265.923 1032.28 263.96 1023.74 263.96C1014.01 263.96 1005.65 266.093 998.654 270.36C991.827 274.627 986.622 280.515 983.038 288.024C979.454 295.363 977.662 303.725 977.662 313.112C977.662 322.499 979.795 330.861 984.062 338.2C988.329 345.539 994.217 351.341 1001.73 355.608C1009.24 359.875 1017.85 362.008 1027.58 362.008C1032.87 362.008 1038.25 361.069 1043.71 359.192C1049.34 357.144 1053.86 354.84 1057.28 352.28C1059.84 350.403 1062.57 349.464 1065.47 349.464C1068.54 349.293 1071.19 350.147 1073.41 352.024C1076.31 354.584 1077.84 357.4 1078.01 360.472C1078.18 363.544 1076.82 366.189 1073.92 368.408C1068.12 373.016 1060.86 376.771 1052.16 379.672C1043.62 382.573 1035.43 384.024 1027.58 384.024ZM1179.28 384.024C1165.97 384.024 1153.93 380.952 1143.18 374.808C1132.6 368.493 1124.15 359.96 1117.84 349.208C1111.69 338.456 1108.62 326.339 1108.62 312.856C1108.62 299.373 1111.44 287.341 1117.07 276.76C1122.87 266.008 1130.72 257.56 1140.62 251.416C1150.52 245.101 1161.7 241.944 1174.16 241.944C1184.23 241.944 1193.53 244.077 1202.06 248.344C1210.6 252.44 1217.76 258.072 1223.57 265.24V196.12C1223.57 192.195 1224.76 189.037 1227.15 186.648C1229.71 184.259 1232.87 183.064 1236.62 183.064C1240.55 183.064 1243.7 184.259 1246.09 186.648C1248.48 189.037 1249.68 192.195 1249.68 196.12V312.856C1249.68 326.339 1246.52 338.456 1240.21 349.208C1234.06 359.96 1225.7 368.493 1215.12 374.808C1204.54 380.952 1192.59 384.024 1179.28 384.024ZM1179.28 360.984C1187.98 360.984 1195.75 358.936 1202.57 354.84C1209.4 350.573 1214.78 344.771 1218.7 337.432C1222.63 330.093 1224.59 321.901 1224.59 312.856C1224.59 303.64 1222.63 295.448 1218.7 288.28C1214.78 281.112 1209.4 275.48 1202.57 271.384C1195.75 267.117 1187.98 264.984 1179.28 264.984C1170.74 264.984 1162.98 267.117 1155.98 271.384C1149.16 275.48 1143.69 281.112 1139.6 288.28C1135.67 295.448 1133.71 303.64 1133.71 312.856C1133.71 321.901 1135.67 330.093 1139.6 337.432C1143.69 344.771 1149.16 350.573 1155.98 354.84C1162.98 358.936 1170.74 360.984 1179.28 360.984ZM1295.53 383C1291.78 383 1288.62 381.72 1286.06 379.16C1283.5 376.6 1282.22 373.443 1282.22 369.688V196.376C1282.22 192.451 1283.5 189.293 1286.06 186.904C1288.62 184.344 1291.78 183.064 1295.53 183.064H1411.25C1415.17 183.064 1418.33 184.259 1420.72 186.648C1423.11 188.867 1424.3 191.853 1424.3 195.608C1424.3 199.192 1423.11 202.093 1420.72 204.312C1418.33 206.531 1415.17 207.64 1411.25 207.64H1308.85V269.848H1382.32C1386.24 269.848 1389.4 271.043 1391.79 273.432C1394.18 275.651 1395.37 278.552 1395.37 282.136C1395.37 285.72 1394.18 288.707 1391.79 291.096C1389.4 293.315 1386.24 294.424 1382.32 294.424H1308.85V369.688C1308.85 373.443 1307.57 376.6 1305.01 379.16C1302.45 381.72 1299.29 383 1295.53 383ZM1554.09 383C1552.39 383 1550.77 382.744 1549.23 382.232C1547.69 381.72 1546.24 380.611 1544.88 378.904L1500.08 325.144L1490.86 315.928L1446.32 263.192C1444.1 260.461 1442.9 257.56 1442.73 254.488C1442.56 251.245 1443.42 248.515 1445.29 246.296C1447.17 244.077 1449.99 242.968 1453.74 242.968C1457.84 242.968 1461.08 244.419 1463.47 247.32L1507.25 299.544L1513.9 305.688L1562.03 363.288C1564.59 366.36 1565.78 369.432 1565.61 372.504C1565.61 375.405 1564.5 377.88 1562.29 379.928C1560.24 381.976 1557.51 383 1554.09 383ZM1456.3 383C1452.89 383 1450.16 381.976 1448.11 379.928C1446.23 377.709 1445.29 375.064 1445.29 371.992C1445.29 368.92 1446.49 365.848 1448.88 362.776L1492.4 308.248L1506.22 327.704L1465.52 378.904C1462.96 381.635 1459.89 383 1456.3 383ZM1519.53 317.208L1501.87 302.104L1543.09 247.32C1544.45 245.613 1545.9 244.504 1547.44 243.992C1548.97 243.309 1550.68 242.968 1552.56 242.968C1556.31 242.968 1559.13 244.163 1561.01 246.552C1562.88 248.771 1563.74 251.501 1563.57 254.744C1563.57 257.987 1562.37 261.144 1559.98 264.216L1519.53 317.208Z" fill="#1D1B20"/>
</svg>
